D:\school\WTK\thesis\model\3dpredictsim\Results\batch_windlass\Pog_s1_tmt_aCst_d05_k1000_WL20_ig24_act_TTC_GRF.mot
nRows=20
nColumns=19

name D:\school\WTK\thesis\model\3dpredictsim\Results\batch_windlass\Pog_s1_tmt_aCst_d05_k1000_WL20_ig24_act_TTC_GRF.mot
datacolumns 19
datarows 20
range 0.6184044086 0.8533980839
endheader
time 	ground_force_vx	ground_force_vy	ground_force_vz	ground_force_px	ground_force_py	ground_force_pz	1_ground_force_vx	1_ground_force_vy	1_ground_force_vz	1_ground_force_px	1_ground_force_py	1_ground_force_pz	ground_torque_x	ground_torque_y	ground_torque_z	1_ground_torque_x	1_ground_torque_y	1_ground_torque_z
        0.6184044086	       93.9141653377	      369.9292658146	        0.6822603875	        0.3949171421	        0.0000000000	        0.0352649206	      -49.0999123812	       34.5341656248	       -6.9640745960	        0.9365999352	        0.0000000000	       -0.0623326719	        0.0000000000	        0.0000000000	        0.0000000000	        0.0000000000	        0.0000000000	        0.0000000000	
        0.6307724968	       57.5564107476	      265.3556857466	        9.4592121020	        0.4061954345	        0.0000000000	        0.0310724669	     -117.8581045913	       99.6085057156	      -20.2288088751	        0.9507316167	        0.0000000000	       -0.0610274077	        0.0000000000	        0.0000000000	        0.0000000000	        0.0000000000	        0.0000000000	        0.0000000000	
        0.6431405849	       40.9288936216	      213.8933292886	       16.2584897141	        0.4111811626	        0.0000000000	        0.0291016553	     -139.1304974490	      286.4980982128	      -23.1784494767	        0.9686269696	        0.0000000000	       -0.0618549550	        0.0000000000	        0.0000000000	        0.0000000000	        0.0000000000	        0.0000000000	        0.0000000000	
        0.6555086731	       36.5892590598	      171.2339264386	       15.8023729007	        0.4113062593	        0.0000000000	        0.0291390484	     -112.3059237917	      657.2061830203	       17.6820126879	        0.9810500987	        0.0000000000	       -0.0630659031	        0.0000000000	        0.0000000000	        0.0000000000	        0.0000000000	        0.0000000000	        0.0000000000	
        0.6678767613	       24.2295847476	      115.1175831218	       14.1414745656	        0.4112607115	        0.0000000000	        0.0292475158	     -147.1692824561	      894.2430633454	       30.9765673583	        0.9911302788	        0.0000000000	       -0.0631698937	        0.0000000000	        0.0000000000	        0.0000000000	        0.0000000000	        0.0000000000	        0.0000000000	
        0.6802448495	        3.6146594737	       45.0247865709	        8.8332145953	        0.4102897015	        0.0000000000	        0.0295988947	     -186.1221016020	      994.5901448217	       29.1888818093	        1.0040250412	        0.0000000000	       -0.0618156555	        0.0000000000	        0.0000000000	        0.0000000000	        0.0000000000	        0.0000000000	        0.0000000000	
        0.6926129376	        0.1821434637	       -0.1938337694	       -0.0205440698	        0.0000000000	        0.0000000000	        0.0000000000	     -175.7168506483	      953.7812562900	       22.4435607126	        1.0127307188	        0.0000000000	       -0.0603670022	        0.0000000000	        0.0000000000	        0.0000000000	        0.0000000000	        0.0000000000	        0.0000000000	
        0.7049810258	        0.0000724287	       -0.0000662644	       -0.0000029933	        0.0000000000	        0.0000000000	        0.0000000000	     -143.3976543661	      847.1644007659	       18.1297504254	        1.0166704107	        0.0000000000	       -0.0596061020	        0.0000000000	        0.0000000000	        0.0000000000	        0.0000000000	        0.0000000000	        0.0000000000	
        0.7173491140	        0.0000006719	       -0.0000005495	       -0.0000000284	        0.0000000000	        0.0000000000	        0.0000000000	     -117.8954261781	      762.6021476589	       15.9085366768	        1.0205418293	        0.0000000000	       -0.0591246135	        0.0000000000	        0.0000000000	        0.0000000000	        0.0000000000	        0.0000000000	        0.0000000000	
        0.7297172021	        0.0000001428	       -0.0000001088	       -0.0000000064	        0.0000000000	        0.0000000000	        0.0000000000	     -105.0364316467	      718.5496326558	       15.7163704213	        1.0243068657	        0.0000000000	       -0.0587615250	        0.0000000000	        0.0000000000	        0.0000000000	        0.0000000000	        0.0000000000	        0.0000000000	
        0.7420852903	        0.0000009669	       -0.0000006726	       -0.0000000268	        0.0000000000	        0.0000000000	        0.0000000000	      -92.5585279595	      698.1031005073	       18.7750194023	        1.0274255146	        0.0000000000	       -0.0584896348	        0.0000000000	        0.0000000000	        0.0000000000	        0.0000000000	        0.0000000000	        0.0000000000	
        0.7544533785	        0.0000689257	       -0.0000429576	        0.0000007543	        0.0000000000	        0.0000000000	        0.0000000000	      -79.3911296696	      676.7471652411	       19.9910545083	        1.0305265826	        0.0000000000	       -0.0583147351	        0.0000000000	        0.0000000000	        0.0000000000	        0.0000000000	        0.0000000000	        0.0000000000	
        0.7668214667	       -0.0011887473	        0.0006748363	       -0.0000391383	        0.0000000000	        0.0000000000	        0.0000000000	      -66.6493419088	      655.9110123669	       20.1996514298	        1.0342822695	        0.0000000000	       -0.0581384404	        0.0000000000	        0.0000000000	        0.0000000000	        0.0000000000	        0.0000000000	        0.0000000000	
        0.7791895548	       -0.0008266053	        0.0004344445	       -0.0000399107	        0.0000000000	        0.0000000000	        0.0000000000	      -56.2428890956	      638.3951680680	       20.7978871701	        1.0392785618	        0.0000000000	       -0.0578177726	        0.0000000000	        0.0000000000	        0.0000000000	        0.0000000000	        0.0000000000	        0.0000000000	
        0.7915576430	       -0.0005722898	        0.0002824561	       -0.0000332995	        0.0000000000	        0.0000000000	        0.0000000000	      -48.5246316507	      624.7671791496	       21.1801223650	        1.0453479320	        0.0000000000	       -0.0573275188	        0.0000000000	        0.0000000000	        0.0000000000	        0.0000000000	        0.0000000000	        0.0000000000	
        0.8039257312	       -0.0005501104	        0.0002580675	       -0.0000353401	        0.0000000000	        0.0000000000	        0.0000000000	      -43.0170740345	      613.9720623004	       21.2093550971	        1.0519076969	        0.0000000000	       -0.0567172578	        0.0000000000	        0.0000000000	        0.0000000000	        0.0000000000	        0.0000000000	        0.0000000000	
        0.8162938193	       -0.0007305521	        0.0003290380	       -0.0000488015	        0.0000000000	        0.0000000000	        0.0000000000	      -38.6104564543	      605.6569069592	       20.6621505775	        1.0584780153	        0.0000000000	       -0.0560593110	        0.0000000000	        0.0000000000	        0.0000000000	        0.0000000000	        0.0000000000	        0.0000000000	
        0.8286619075	       -0.0012547808	        0.0005470439	       -0.0000831985	        0.0000000000	        0.0000000000	        0.0000000000	      -34.3991083494	      599.1964258409	       20.1692024620	        1.0650372882	        0.0000000000	       -0.0553546501	        0.0000000000	        0.0000000000	        0.0000000000	        0.0000000000	        0.0000000000	        0.0000000000	
        0.8410299957	       -0.0025930212	        0.0011013931	       -0.0001662672	        0.0000000000	        0.0000000000	        0.0000000000	      -32.1950633495	      594.7134077655	       19.7548742791	        1.0714251685	        0.0000000000	       -0.0546221019	        0.0000000000	        0.0000000000	        0.0000000000	        0.0000000000	        0.0000000000	        0.0000000000	
        0.8533980839	       -0.0060106334	        0.0024992898	       -0.0003656401	        0.0000000000	        0.0000000000	        0.0000000000	      -29.7426516427	      591.2392559671	       19.5196482357	        1.0773974245	        0.0000000000	       -0.0539165181	        0.0000000000	        0.0000000000	        0.0000000000	        0.0000000000	        0.0000000000	        0.0000000000	
